<svg width="12" height="20" viewBox="0 0 12 20" fill="none" xmlns="http://www.w3.org/2000/svg">
<path id="$" d="M6.04826 16.8311C4.79112 16.8311 3.74563 16.6505 2.91181 16.2892C2.07799 15.9151 1.44942 15.3926 1.0261 14.7218C0.602775 14.038 0.391113 13.2381 0.391113 12.3222H3.21969C3.21969 12.6834 3.3159 13.0253 3.50832 13.3478C3.70074 13.6574 4.00861 13.909 4.43193 14.1025C4.85526 14.2831 5.39403 14.3734 6.04826 14.3734C6.92056 14.3734 7.58762 14.2186 8.04943 13.909C8.52406 13.5994 8.76138 13.1865 8.76138 12.6705C8.76138 12.219 8.56255 11.8513 8.16488 11.5675C7.76721 11.2707 7.13223 11.0772 6.25992 10.9869L5.27858 10.9095C3.90598 10.7805 2.8156 10.3677 2.00744 9.67103C1.19928 8.96147 0.795195 7.96165 0.795195 6.67155C0.795195 5.78138 0.994029 5.03957 1.3917 4.44613C1.78937 3.83978 2.36021 3.38825 3.10423 3.09153C3.84826 2.7819 4.7398 2.62709 5.77887 2.62709C6.89491 2.62709 7.83135 2.80126 8.5882 3.14958C9.34506 3.49791 9.9159 4.00105 10.3007 4.659C10.6984 5.31695 10.8972 6.11681 10.8972 7.05858H8.06867C8.06867 6.68445 7.97887 6.35547 7.79928 6.07165C7.63252 5.77493 7.38237 5.53626 7.04884 5.35565C6.71532 5.17503 6.29199 5.08473 5.77887 5.08473C5.32989 5.08473 4.94505 5.14923 4.62435 5.27824C4.30365 5.40725 4.05992 5.59432 3.89316 5.83944C3.72639 6.07165 3.64301 6.34902 3.64301 6.67155C3.64301 7.07148 3.79053 7.43271 4.08558 7.75523C4.38062 8.06485 4.86808 8.25837 5.54797 8.33577L6.52931 8.41318C8.06867 8.54219 9.30016 8.96147 10.2238 9.67103C11.1474 10.3806 11.6092 11.3804 11.6092 12.6705C11.6092 13.5607 11.3911 14.3154 10.955 14.9346C10.5188 15.5539 9.88383 16.0248 9.05001 16.3473C8.22902 16.6698 7.22844 16.8311 6.04826 16.8311ZM4.68208 19.25V16.4247H7.20278V19.25H4.68208ZM4.60511 3.57531V0.75H7.12581V3.57531H4.60511Z" fill="white"/>
</svg>
