<svg width="10" height="18" viewBox="0 0 10 18" fill="none" xmlns="http://www.w3.org/2000/svg">
<path id="&#225;&#159;&#155;" d="M4.64591 17.095C3.71545 17.095 2.92098 16.9734 2.2625 16.73C1.60402 16.4723 1.09584 16.1002 0.737976 15.6135C0.380106 15.1124 0.201172 14.5112 0.201172 13.8098C0.201172 13.1084 0.380106 12.5143 0.737976 12.0276C1.11016 11.5266 1.63981 11.1472 2.32692 10.8896C3.02834 10.6319 3.88722 10.5031 4.90357 10.5031V12.5859C4.28804 12.5859 3.81565 12.6861 3.48641 12.8865C3.15717 13.0726 2.99255 13.366 2.99255 13.7668C2.99255 14.1677 3.14286 14.4754 3.44347 14.6901C3.75839 14.8906 4.14489 14.9908 4.60296 14.9908H5.48332L4.7318 15.8067L4.79621 9.06445H7.45876V17.095H4.64591ZM1.79011 9.66567V7.60434H9.79922V9.66567H1.79011ZM4.79621 8.22703V7.51845C4.79621 7.3753 4.76758 7.26079 4.71032 7.1749C4.65306 7.07469 4.55286 6.98165 4.40971 6.89576C4.15205 6.72398 3.82997 6.53789 3.44347 6.33748C3.07128 6.13708 2.77067 5.97246 2.54164 5.84362C1.94042 5.48575 1.56823 5.01337 1.42508 4.42646C1.28194 3.82524 1.3392 3.19539 1.59686 2.53691C1.86884 1.87843 2.24818 1.44183 2.73489 1.22711C3.22159 1.01239 3.91585 0.905029 4.81768 0.905029C5.40459 0.905029 5.98434 0.933659 6.55693 0.990918C7.14383 1.03386 7.72358 1.09828 8.29617 1.18417V3.56758C7.72358 3.48169 7.15815 3.41011 6.59987 3.35285C6.0416 3.2956 5.40459 3.26697 4.68885 3.26697C4.47413 3.26697 4.32382 3.28844 4.23794 3.33138C4.15205 3.37433 4.09479 3.4459 4.06616 3.5461C4.02321 3.64631 4.0089 3.73935 4.02321 3.82524C4.03753 3.91113 4.10195 3.98986 4.21646 4.06144C4.31667 4.11869 4.47413 4.21174 4.68885 4.34057C4.91789 4.45509 5.16124 4.58392 5.4189 4.72707C5.69088 4.87022 5.92708 5.00621 6.12748 5.13504C6.57124 5.39271 6.90048 5.70048 7.1152 6.05834C7.34424 6.4019 7.45876 6.8886 7.45876 7.51845V8.22703H4.79621Z" fill="white"/>
</svg>
